<?xml version="1.0" standalone="no"?>
<!DOCTYPE svg PUBLIC "-//W3C//DTD SVG 20010904//EN"
 "http://www.w3.org/TR/2001/REC-SVG-20010904/DTD/svg10.dtd">
<svg version="1.0" xmlns="http://www.w3.org/2000/svg"
 width="260.000000pt" height="260.000000pt" viewBox="0 0 260.000000 260.000000"
 preserveAspectRatio="xMidYMid meet">
<metadata>
Created by potrace 1.14, written by Peter Selinger 2001-2017
</metadata>
<g transform="translate(0.000000,260.000000) scale(0.100000,-0.100000)"
fill="#000000" stroke="none">
<path d="M1066 1730 c-189 -306 -232 -369 -247 -365 -10 3 -125 64 -256 134
-131 70 -292 156 -358 191 -66 34 -135 72 -153 82 -18 11 -36 18 -39 15 -2 -3
9 -45 25 -94 117 -342 385 -1132 390 -1148 3 -11 9 -23 14 -26 14 -9 1708 -3
1717 7 5 5 31 77 59 159 28 83 123 364 211 625 89 261 161 476 161 478 0 3
-288 -145 -305 -158 -5 -4 -62 -35 -125 -68 -63 -34 -178 -95 -255 -136 l-140
-75 -22 37 c-133 219 -439 711 -443 711 -3 1 -108 -166 -234 -369z m483 -492
c-63 -38 -218 -120 -235 -124 -14 -4 -59 15 -135 55 -63 34 -120 65 -127 69
-13 9 -1 31 171 307 l79 126 131 -212 c104 -169 128 -214 116 -221z m-946 -22
l108 -58 -26 -45 c-46 -78 -135 -217 -135 -211 0 3 -31 97 -70 209 -38 111
-70 204 -70 205 0 2 19 -7 43 -20 23 -13 91 -49 150 -80z m1520 -102 c-36
-109 -69 -202 -72 -206 -3 -4 -41 50 -84 119 -43 69 -74 130 -69 135 10 10
286 157 289 154 2 -1 -27 -92 -64 -202z m-885 -237 l63 -32 77 42 c42 22 113
60 157 83 44 24 95 51 113 62 19 10 36 18 37 16 7 -8 185 -297 185 -301 0 -3
-1108 -2 -1132 2 -4 1 34 68 85 150 l92 149 130 -69 c72 -39 158 -84 193 -102z"/>
</g>
</svg>
